<?xml version="1.0" encoding="utf-8"?>
<!-- Generator: Adobe Illustrator 23.0.2, SVG Export Plug-In . SVG Version: 6.00 Build 0)  -->
<svg version="1.1" id="Layer_1" xmlns="http://www.w3.org/2000/svg" xmlns:xlink="http://www.w3.org/1999/xlink" x="0px" y="0px"
	 viewBox="0 0 200.3268 196.4495" enable-background="new 0 0 200.3268 196.4495" xml:space="preserve">
<g>
	<polygon points="13.3574,17.2532 0,23.3108 36.0722,102.8567 50.3173,98.7571 	"/>
	<path d="M128.1377,57.5003c11.6806,5.1914,33.6484-13.2676,38.8398-24.9492c5.1875-11.6817-0.0742-25.3614-11.7578-30.5508
		c-11.6817-5.1914-25.3604,0.0703-30.5508,11.7539C119.4804,25.4378,116.4541,52.3108,128.1377,57.5003z M128.3369,23.4085
		c2.7783-6.6641,7.9912-10.834,11.6455-9.3106c3.6533,1.5215,4.3633,8.1602,1.5869,14.8243
		c-2.7754,6.6621-7.9912,10.832-11.6436,9.3105C126.2705,36.7093,125.5605,30.0735,128.3369,23.4085z"/>
	<path d="M144.4272,73.43c1.3882-2.6714,4.1094-4.3238,7.1104-4.3238c1.269,0,2.54,0.3111,3.6748,0.8985
		c3.9155,2.0307,5.4502,6.8672,3.4213,10.7827c-0.997,1.8603-4.645,8.147-11.541,14.5508c-1.8593,1.7309-4.0659,3.5473-6.6015,5.289
		c1.2798,7.6211,2.206,15.7481,1.8496,23.4873h-19.0117v30.3282l4.2475-11.3272h28.0835c0.6797,0,1.3418-0.0742,1.9815-0.2099
		c7.0996-0.6739,14.2885-3.8057,16.622-15.8135c2.3418-20.1192,1.0176-32.0117-5.1455-50.2832
		c-4.5605-13.2598-15.7676-17.459-23.5-15.5313c-7.6748,1.9121-11.0737,12.5611-8.5781,21.5357
		C141.9345,78.055,144.4023,73.4793,144.4272,73.43z"/>
	<path d="M110.9526,107.8313c0.0156,0,0.0327,0,0.0478,0c15.7125,0.001,27.3628-7.0976,34.731-13.9594
		c7.4243-6.8955,10.9141-13.6162,11.126-14.003c1.5249-2.9428,0.3745-6.5644-2.5659-8.0893c-2.941-1.5239-6.5586-0.375-8.085,2.562
		c-0.1685,0.3335-3.2778,5.9556-9.1943,11.2378c-5.961,5.3066-14.4024,10.2373-26.0596,10.2514
		c-4.1133,0-8.6694-0.6171-13.7437-2.1318c-3.1752-0.9463-6.517,0.8584-7.4638,4.0337c-0.9483,3.1748,0.8559,6.5186,4.0332,7.4648
		C99.8862,107.0227,105.6274,107.8313,110.9526,107.8313z"/>
	<path d="M190.2436,160.8528l10-64.6679c0.5908-3.8199-2.0268-7.3951-5.8467-7.9854c-3.8217-0.5908-7.3969,2.0269-7.9878,5.8467
		l-9.0839,58.7363h-42.3326c-3.8652,0-6.999,3.1338-6.999,7.001c0,3.8652,3.1338,7.001,6.999,7.001l48.3345-0.002
		C186.77,166.7825,189.7168,164.2542,190.2436,160.8528z"/>
	<path d="M121.3281,121.7835l-3.7471-1.1475l1.1416-3.7988l-11.0146-3.3066l-1.1231,3.7373l-5.6045-1.7159l1.1143-3.708
		L91.08,108.5354l-1.0957,3.6485l-5.6045-1.7158l1.087-3.6182l-11.0137-3.3086l-1.0694,3.5586l-5.6044-1.7158l1.0605-3.5284
		l-11.0146-3.3085l-1.042,3.4687l-5.1153-1.5664l-44.0078,12.666v83.334h113.668V121.7835z M24.6601,130.4495h-6.333v-12.667h6.333
		V130.4495z M36.9941,130.4495h-6.334v-12.667h6.334V130.4495z M42.9941,117.7825h6.333v12.667h-6.333V117.7825z M80.9941,170.1165
		c0-8.6524,7.0146-15.667,15.668-15.667c8.6523,0,15.666,7.0146,15.666,15.667c0,8.6523-7.0137,15.667-15.666,15.667
		C88.0087,185.7835,80.9941,178.7688,80.9941,170.1165z"/>
</g>
</svg>
