<?xml version="1.0" encoding="utf-8"?>
<!-- Generator: Adobe Illustrator 23.0.2, SVG Export Plug-In . SVG Version: 6.00 Build 0)  -->
<svg version="1.1" id="Layer_1" xmlns="http://www.w3.org/2000/svg" xmlns:xlink="http://www.w3.org/1999/xlink" x="0px" y="0px"
	 viewBox="0 0 379.918 323.039" enable-background="new 0 0 379.918 323.039" xml:space="preserve">
<g>
	<polygon points="198,184.8691 173,186.5356 191,146.5356 179.5469,136.7788 165,146.0356 174.0762,132.1191 164,123.5356 
		171.3066,107.7973 141.2861,107.7973 134,119.5356 139,140.5356 121,125.5356 127.208,107.7973 0,107.7973 0,322.3579 
		198,322.3579 	"/>
	<path d="M311.0527,103.6274c-12.0996,2.8164-19.625,14.9102-16.8086,27.0098c2.8184,12.0996,14.9122,19.625,27.0118,16.8066
		c12.0996-2.8164,19.625-14.9102,16.8066-27.0098C335.2451,108.3344,323.1523,100.809,311.0527,103.6274z"/>
	<path d="M261.0488,141.5102c0.8155,1.6128,1.6807,3.0903,2.585,4.4614l6.3564-7.9057c0.7422,3.2129,1.6953,6.185,2.8477,8.9233
		c2.2021,5.3003,5.1885,9.6568,8.5762,13.1543c6.3877,2.437,13.2666,3.2583,19.1992,3.249c0.3799,0.0005,0.75-0.0053,1.1211-0.0112
		c7.4658-0.1191,13.083-1.4468,13.4951-1.5542v-0.001c4.8086-1.2534,9.7256,1.6294,10.9795,6.438
		c0.2334,0.896,0.3223,1.7954,0.2832,2.6738c-0.1719,3.8399-2.8086,7.2847-6.7217,8.3052
		c-0.459,0.1123-7.2344,1.8696-16.9746,2.1192c2.7559,13.5634,6.3984,31.1816,4.3408,46.517
		c-0.0137,0.2349-0.0224,0.4566-0.0342,0.6841c-1.9384,1.5972-3.956,3.397-5.9931,5.4283
		c-5.1826,5.1938-10.4737,11.8974-14.5,20.3183c-4.0293,8.4019-6.7217,18.5444-6.708,30.0391
		c-0.002,9.3437,1.7519,19.5342,5.6855,30.4267c1.836,5.0943,6.6377,8.2632,11.7569,8.2632c1.4082,0,2.8408-0.2397,4.2421-0.7451
		c6.4942-2.3413,9.8594-9.5063,7.5186-15.9995c-3.0566-8.4819-4.2002-15.7119-4.2022-21.9453
		c0.0108-7.6607,1.709-13.8877,4.2627-19.2613c0.6866-1.4438,1.4434-2.8242,2.253-4.142c0.6259,8.9399,2.7412,18.896,7.7949,28.6645
		c6.1914,12.0659,17.0947,23.4697,33.3916,31.2022c6.2266,2.978,13.6904,0.3461,16.6709-5.8809
		c2.9775-6.229,0.3467-13.6929-5.8809-16.6729c-11.8174-5.7182-18.0615-12.7094-21.9863-20.1562
		c-3.8769-7.4482-5.209-15.7285-5.2021-23.2813c-0.004-5.9018,0.8125-11.269,1.625-15.0463
		c0.4043-1.8887,0.8056-3.3809,1.0869-4.3516c0.0293-0.0991,0.0508-0.1685,0.0771-0.2564c1.7197-2.4594,3.0791-5.6699,3.8955-9.8725
		c2.586-22.2153,1.125-35.3467-5.6815-55.521c-5.0332-14.6421-17.4102-19.2778-25.9453-17.1499
		c-2.1563,0.5376-4.0059,1.7002-5.5225,3.2969c-3.6904-0.8374-7.457-2.3457-10.6211-4.8872
		c-2.8906-2.3067-5.4941-5.4366-7.5361-10.252c-2.0274-4.8105-3.4385-11.3809-3.4404-20.3184l57.9853-72.1162l16.1719,13.0025
		l21.6172-26.8853l-16.1719-13.0024l6.5801-8.1831l-10.5215-8.459l-6.5791,8.1826L337.0547,0l-21.6182,26.8852l16.1719,13.0025
		l-50.9258,63.3364c-0.9668-0.5635-2.0635-0.939-3.251-1.0537c-4.3994-0.4244-8.3076,2.7978-8.7304,7.1953
		c-0.3194,3.2998-0.4893,6.4341-0.5362,9.4277l-14.3056,17.7915C256.8398,136.874,259.6113,138.6347,261.0488,141.5102z"/>
	<path d="M251.9678,160.4804c-2.6143-3.1953-4.9873-6.8252-7.0186-10.9194c-0.207-0.4141-0.3672-0.8379-0.5058-1.2651
		l-12.461,15.498l10.5196,8.459L251.9678,160.4804z"/>
	<polygon points="240.165,318.2417 204.6387,296.8198 213.7344,322.062 	"/>
	<polygon points="275.333,305.8696 258.666,307.8696 274,321.8696 	"/>
	<polygon points="186.6816,132.2382 196.5,141.2031 198,123.2031 198.5,117.2031 198,117.2631 173.5,120.2031 178.7314,124.9799 	
		"/>
	<polygon points="238.334,313.5356 260.334,321.5356 251,302.8696 	"/>
	<path d="M246.7422,148.6709c1.9433,3.9194,4.1621,7.2876,6.5117,10.2094c6.2852,7.8135,13.542,12.3291,19.2207,14.8731
		c8.2461,3.728,17.7109,5.6245,28.1387,5.6386c0.6035-0.0004,1.1963-0.0073,1.7793-0.02c8.6885-0.1841,15.0176-1.601,16.873-2.0644
		c2.6963-0.7027,4.6084-2.8975,5.1016-5.4673c0.1904-0.9902,0.1767-2.0337-0.0938-3.0723c-0.8046-3.082-3.5888-5.2363-6.7695-5.2363
		c-0.5937,0-1.1894,0.0776-1.7715,0.231c-0.0615,0.0161-6.2236,1.5512-14.4502,1.6245c-0.2011,0.0019-0.3974,0.0068-0.6006,0.0068
		h-0.166c-4.1484,0-9.7343-0.4019-15.5088-1.9775c-2.249-0.6138-4.5263-1.4004-6.7588-2.419
		c-6.7148-3.0986-11.8769-7.4248-15.9296-13.3896c-1.0967-1.6138-2.1172-3.3409-3.0586-5.2036
		c-1.1953-2.3873-3.5967-3.8711-6.2676-3.8711c-0.2471,0-0.4902,0.0166-0.7334,0.0424c-0.8281,0.087-1.6299,0.3184-2.3897,0.6978
		c-1.6738,0.8359-2.9189,2.2749-3.5117,4.0488c-0.3242,0.9756-0.4219,1.9873-0.3105,2.98
		C246.1367,147.1152,246.3643,147.9155,246.7422,148.6709z"/>
</g>
</svg>
