<?xml version="1.0" encoding="UTF-8" standalone="no"?> <svg xmlns="http://www.w3.org/2000/svg" viewBox="0 0 64 64"><g id="Layer_26" data-name="Layer 26"><path d="M56.36,31.54C55.91,31,45.34,17.38,32,17.38S8.09,31,7.64,31.54a.78.78,0,0,0,0,.92c.45.57,11,14.16,24.36,14.16S55.91,33,56.36,32.46A.78.78,0,0,0,56.36,31.54ZM32,45.12C20.74,45.12,11.17,34.37,9.2,32c2-2.37,11.54-13.12,22.8-13.12S52.83,29.63,54.8,32C52.83,34.37,43.26,45.12,32,45.12Z"/><path d="M32,23.3A8.7,8.7,0,1,0,40.7,32,8.71,8.71,0,0,0,32,23.3Zm0,15.9A7.2,7.2,0,1,1,39.2,32,7.21,7.21,0,0,1,32,39.2Z"/><path d="M32,60.75A28.75,28.75,0,1,1,60.75,32,28.79,28.79,0,0,1,32,60.75Zm0-56A27.25,27.25,0,1,0,59.25,32,27.28,27.28,0,0,0,32,4.75Z"/></g></svg>