<?xml version="1.0" encoding="UTF-8" standalone="no"?> <svg width="64" height="64" viewBox="0 0 64 64" fill="none" xmlns="http://www.w3.org/2000/svg">
<path d="M24 57H14.69C14.259 54.6909 14.0281 52.3488 14 50C13.9982 48.5156 14.1456 47.0349 14.44 45.58C14.7747 43.9462 15.2947 42.3559 15.99 40.84C16.14 40.51 16.3 40.18 16.47 39.86C16.64 40.06 16.83 40.26 17.02 40.45C18.4876 41.8989 20.2966 42.9547 22.28 43.52C22.3318 43.5412 22.3853 43.5579 22.44 43.57C23.503 43.8562 24.5991 44.0008 25.7 44H32.3C33.4008 44.0008 34.4969 43.8562 35.56 43.57C35.6146 43.5579 35.6681 43.5412 35.72 43.52C37.6076 42.9874 39.338 42.005 40.7627 40.6569C42.1874 39.3088 43.2639 37.6354 43.9 35.78C46.3518 37.2841 48.4334 39.3212 49.99 41.74C50.8484 43.0639 51.534 44.4921 52.03 45.99C52.6748 47.928 53.0023 49.9575 53 52C53.003 53.6892 52.7776 55.3712 52.33 57H43V59H37V57H28V59H24V57Z" fill="#BDDBFF"/>
<path d="M54.52 35.93C54.8395 36.9219 55.0015 37.9579 55 39C55.0149 40.3071 54.7586 41.6031 54.2474 42.8062C53.7362 44.0093 52.9812 45.0934 52.03 45.99C51.534 44.4921 50.8484 43.0639 49.99 41.74C50.921 41.1005 51.6818 40.2433 52.2063 39.243C52.7309 38.2427 53.0033 37.1295 53 36C53.0017 35.9066 52.9983 35.8131 52.99 35.72C53.2946 35.9042 53.644 36.001 54 36C54.1758 36.0027 54.3511 35.9791 54.52 35.93V35.93Z" fill="#BDDBFF"/>
<path d="M44.51 31.25C44.5621 31.9905 44.5386 32.7343 44.44 33.47C44.379 33.9763 44.2821 34.4775 44.15 34.97C44.0804 35.2441 43.9969 35.5144 43.9 35.78C43.2639 37.6354 42.1874 39.3088 40.7627 40.6569C39.338 42.005 37.6077 42.9874 35.72 43.52C35.9058 42.6929 35.9997 41.8477 36 41C36 36.03 32.87 32 29 32C25.13 32 22 36.03 22 41C22.0003 41.8477 22.0942 42.6929 22.28 43.52C20.2966 42.9547 18.4876 41.8989 17.02 40.45C16.83 40.26 16.64 40.06 16.47 39.86C15.429 38.6929 14.6297 37.3311 14.1182 35.8533C13.6067 34.3754 13.3932 32.8109 13.49 31.25L14 23.25V23.2C14.0598 22.3006 14.2242 21.4113 14.49 20.55V20.54C14.9826 18.9291 15.8146 17.4424 16.93 16.18L18.25 21.1C18.3767 21.5665 18.6681 21.9713 19.0702 22.2395C19.4724 22.5078 19.958 22.6213 20.4374 22.5591C20.9168 22.4968 21.3574 22.2631 21.6777 21.9011C21.9981 21.5391 22.1765 21.0734 22.18 20.59C22.1813 20.4109 22.1578 20.2326 22.11 20.06L21.08 16.2C21.0123 15.9428 21.049 15.6693 21.1819 15.4389C21.3149 15.2086 21.5334 15.0401 21.79 14.97L22.75 14.72C24.2574 14.3147 25.5483 13.3394 26.35 12H31.65C32.4516 13.3394 33.7425 14.3147 35.25 14.72L36.21 14.97C36.4665 15.0401 36.6851 15.2086 36.818 15.4389C36.951 15.6693 36.9876 15.9428 36.92 16.2L35.89 20.06C35.8202 20.3135 35.8014 20.5783 35.8346 20.839C35.8679 21.0998 35.9525 21.3514 36.0836 21.5793C36.2148 21.8071 36.3898 22.0067 36.5986 22.1665C36.8074 22.3262 37.0458 22.443 37.3 22.51C37.4725 22.5578 37.6509 22.5814 37.83 22.58C38.2682 22.5787 38.6938 22.433 39.0409 22.1655C39.3879 21.8979 39.6372 21.5235 39.75 21.1L41.07 16.18C42.1854 17.4424 43.0174 18.9291 43.51 20.54V20.55C43.7757 21.4113 43.9401 22.3006 44 23.2V23.25L44.51 31.25ZM39 29C39 28.6044 38.8827 28.2178 38.6629 27.8889C38.4431 27.56 38.1308 27.3036 37.7653 27.1522C37.3999 27.0009 36.9977 26.9613 36.6098 27.0384C36.2218 27.1156 35.8655 27.3061 35.5858 27.5858C35.306 27.8655 35.1156 28.2219 35.0384 28.6098C34.9612 28.9978 35.0008 29.3999 35.1522 29.7654C35.3036 30.1308 35.5599 30.4432 35.8888 30.6629C36.2177 30.8827 36.6044 31 37 31C37.5299 30.9984 38.0377 30.7872 38.4124 30.4125C38.7872 30.0377 38.9984 29.5299 39 29V29ZM23 29C23 28.6044 22.8827 28.2178 22.6629 27.8889C22.4431 27.56 22.1308 27.3036 21.7653 27.1522C21.3999 27.0009 20.9977 26.9613 20.6098 27.0384C20.2218 27.1156 19.8655 27.3061 19.5858 27.5858C19.306 27.8655 19.1156 28.2219 19.0384 28.6098C18.9612 28.9978 19.0008 29.3999 19.1522 29.7654C19.3036 30.1308 19.5599 30.4432 19.8888 30.6629C20.2177 30.8827 20.6044 31 21 31C21.5299 30.9984 22.0377 30.7872 22.4124 30.4125C22.7872 30.0377 22.9984 29.5299 23 29V29Z" fill="#BDDBFF"/>
<path d="M28 36H26V38H28V36Z" fill="#3D9AE2"/>
<path d="M32 36H30V38H32V36Z" fill="#3D9AE2"/>
<path d="M37 32C37.5933 32 38.1734 31.8241 38.6667 31.4944C39.1601 31.1648 39.5446 30.6962 39.7716 30.1481C39.9987 29.5999 40.0581 28.9967 39.9424 28.4147C39.8266 27.8328 39.5409 27.2982 39.1213 26.8787C38.7018 26.4591 38.1672 26.1734 37.5853 26.0576C37.0033 25.9419 36.4001 26.0013 35.852 26.2284C35.3038 26.4554 34.8352 26.8399 34.5056 27.3333C34.1759 27.8266 34 28.4067 34 29C34 29.7957 34.3161 30.5587 34.8787 31.1213C35.4413 31.6839 36.2044 32 37 32ZM37 28C37.1978 28 37.3911 28.0586 37.5556 28.1685C37.72 28.2784 37.8482 28.4346 37.9239 28.6173C37.9996 28.8 38.0194 29.0011 37.9808 29.1951C37.9422 29.3891 37.847 29.5673 37.7071 29.7071C37.5673 29.847 37.3891 29.9422 37.1951 29.9808C37.0011 30.0194 36.8 29.9996 36.6173 29.9239C36.4346 29.8482 36.2784 29.72 36.1685 29.5556C36.0586 29.3911 36 29.1978 36 29C36 28.7348 36.1054 28.4804 36.2929 28.2929C36.4804 28.1054 36.7348 28 37 28Z" fill="#3D9AE2"/>
<path d="M21 32C21.5933 32 22.1734 31.8241 22.6667 31.4944C23.1601 31.1648 23.5446 30.6962 23.7716 30.1481C23.9987 29.5999 24.0581 28.9967 23.9424 28.4147C23.8266 27.8328 23.5409 27.2982 23.1213 26.8787C22.7018 26.4591 22.1672 26.1734 21.5853 26.0576C21.0033 25.9419 20.4001 26.0013 19.8519 26.2284C19.3038 26.4554 18.8352 26.8399 18.5056 27.3333C18.1759 27.8266 18 28.4067 18 29C18 29.7957 18.3161 30.5587 18.8787 31.1213C19.4413 31.6839 20.2044 32 21 32ZM21 28C21.1978 28 21.3911 28.0586 21.5556 28.1685C21.72 28.2784 21.8482 28.4346 21.9239 28.6173C21.9996 28.8 22.0194 29.0011 21.9808 29.1951C21.9422 29.3891 21.847 29.5673 21.7071 29.7071C21.5673 29.847 21.3891 29.9422 21.1951 29.9808C21.0011 30.0194 20.8 29.9996 20.6173 29.9239C20.4346 29.8482 20.2784 29.72 20.1685 29.5556C20.0586 29.3911 20 29.1978 20 29C20 28.7348 20.1054 28.4804 20.2929 28.2929C20.4804 28.1054 20.7348 28 21 28Z" fill="#3D9AE2"/>
<path d="M57 34C57 32.84 56.06 29 54 29C51.94 29 51 32.84 51 34C51.0018 34.417 51.0908 34.8291 51.2613 35.2097C51.4318 35.5903 51.68 35.931 51.99 36.21C51.9342 37.7374 51.2975 39.186 50.21 40.26C48.8028 38.3302 47.0621 36.6674 45.07 35.35C45.09 35.31 45.1 35.27 45.12 35.23C45.2572 34.697 45.3608 34.156 45.43 33.61C45.5375 32.808 45.5643 31.9973 45.51 31.19L45.07 24.37C45.1662 24.3816 45.263 24.3883 45.36 24.39C46.5518 24.3814 47.7206 24.0608 48.75 23.46C49.5872 23.0036 50.3112 22.365 50.8685 21.5913C51.4259 20.8177 51.8023 19.9287 51.97 18.99C52.0343 18.5458 51.9482 18.0928 51.7253 17.7031C51.5024 17.3135 51.1555 17.0097 50.74 16.84C49.8421 16.5147 48.8826 16.3953 47.9324 16.4905C46.9822 16.5857 46.0655 16.8931 45.25 17.39C44.7144 17.7033 44.2205 18.083 43.78 18.52C43.6179 18.161 43.4377 17.8106 43.24 17.47C42.9175 16.9377 42.5565 16.4297 42.16 15.95L42.79 13.63L43.75 13.89C45.5428 14.3695 47.4527 14.1175 49.0598 13.1892C50.6668 12.261 51.8395 10.7326 52.32 8.93999L52.84 7.00999C52.9954 6.4362 52.9769 5.82915 52.7867 5.26591C52.5966 4.70266 52.2434 4.20861 51.7719 3.84646C51.3005 3.48431 50.7321 3.27039 50.1389 3.23185C49.5456 3.19331 48.9543 3.33189 48.44 3.62999C48.0991 3.82592 47.8006 4.08775 47.562 4.40022C47.3233 4.7127 47.1493 5.06956 47.05 5.44999L46.53 7.38999C46.4953 7.51677 46.4359 7.63546 46.3553 7.73927C46.2746 7.84308 46.1743 7.92998 46.0601 7.995C45.9459 8.06001 45.8199 8.10186 45.6895 8.11817C45.5591 8.13447 45.4267 8.12489 45.3 8.08999L44.34 7.82999L45.11 4.93999C45.228 4.55505 45.2673 4.1503 45.2256 3.74984C45.1839 3.34939 45.062 2.96143 44.8671 2.60908C44.6723 2.25673 44.4086 1.9472 44.0916 1.69893C43.7746 1.45067 43.411 1.26874 43.0222 1.164C42.6334 1.05925 42.2276 1.03384 41.8288 1.08926C41.43 1.14468 41.0464 1.27981 40.701 1.48659C40.3555 1.69337 40.0552 1.96757 39.8179 2.29286C39.5807 2.61815 39.4113 2.98787 39.32 3.37999L37.51 10.15L36.54 9.88999C36.2846 9.81811 36.0674 9.64925 35.9347 9.41945C35.8021 9.18966 35.7645 8.91712 35.83 8.65999L36.35 6.72999C36.4527 6.34981 36.4793 5.95307 36.4283 5.56257C36.3772 5.17207 36.2496 4.7955 36.0526 4.45448C35.8556 4.11347 35.5932 3.81473 35.2804 3.57542C34.9676 3.33611 34.6106 3.16095 34.23 3.05999C33.8498 2.95727 33.4531 2.93066 33.0626 2.9817C32.6721 3.03274 32.2955 3.16042 31.9545 3.35741C31.6135 3.5544 31.3147 3.81682 31.0754 4.12959C30.8361 4.44236 30.6609 4.79933 30.56 5.17999L30.04 7.10999C29.6957 8.38783 29.7235 9.73739 30.12 11H27.88C28.2765 9.73739 28.3042 8.38783 27.96 7.10999L27.44 5.17999C27.339 4.79933 27.1639 4.44236 26.9246 4.12959C26.6852 3.81682 26.3865 3.5544 26.0455 3.35741C25.7045 3.16042 25.3279 3.03274 24.9374 2.9817C24.5469 2.93066 24.1502 2.95727 23.77 3.05999C23.3893 3.16095 23.0324 3.33611 22.7196 3.57542C22.4068 3.81473 22.1444 4.11347 21.9474 4.45448C21.7504 4.7955 21.6227 5.17207 21.5717 5.56257C21.5206 5.95307 21.5473 6.34981 21.65 6.72999L22.17 8.65999C22.2355 8.91712 22.1979 9.18966 22.0652 9.41945C21.9326 9.64925 21.7154 9.81811 21.46 9.88999L20.49 10.15L18.68 3.37999C18.5886 2.98787 18.4193 2.61815 18.182 2.29286C17.9448 1.96757 17.6445 1.69337 17.299 1.48659C16.9535 1.27981 16.57 1.14468 16.1712 1.08926C15.7724 1.03384 15.3665 1.05925 14.9778 1.164C14.589 1.26874 14.2253 1.45067 13.9083 1.69893C13.5914 1.9472 13.3276 2.25673 13.1328 2.60908C12.938 2.96143 12.8161 3.34939 12.7744 3.74984C12.7327 4.1503 12.772 4.55505 12.89 4.93999L13.66 7.82999L12.7 8.08999C12.5733 8.12489 12.4409 8.13447 12.3105 8.11817C12.18 8.10186 12.0541 8.06001 11.9399 7.995C11.8256 7.92998 11.7253 7.84308 11.6447 7.73927C11.5641 7.63546 11.5047 7.51677 11.47 7.38999L10.95 5.44999C10.8507 5.06956 10.6766 4.7127 10.438 4.40022C10.1993 4.08775 9.90087 3.82592 9.55998 3.62999C9.04565 3.33189 8.45434 3.19331 7.86111 3.23185C7.26788 3.27039 6.69948 3.48431 6.22804 3.84646C5.7566 4.20861 5.40339 4.70266 5.21323 5.26591C5.02307 5.82915 5.00453 6.4362 5.15998 7.00999L5.67998 8.93999C6.16046 10.7326 7.33314 12.261 8.94019 13.1892C10.5472 14.1175 12.4571 14.3695 14.25 13.89L15.21 13.63L15.84 15.95C15.4435 16.4297 15.0825 16.9377 14.76 17.47C14.5622 17.8106 14.382 18.161 14.22 18.52C13.7795 18.083 13.2856 17.7033 12.75 17.39C11.9361 16.8935 11.0211 16.5864 10.0726 16.4912C9.12405 16.396 8.16624 16.5152 7.26998 16.84C6.85325 17.006 6.50442 17.3072 6.27952 17.6953C6.05463 18.0835 5.96675 18.5359 6.02998 18.98C6.19607 19.9205 6.57176 20.8116 7.12917 21.5871C7.68659 22.3627 8.41145 23.0028 9.24998 23.46C10.2812 24.0563 11.4488 24.3766 12.64 24.39C12.7369 24.3883 12.8337 24.3816 12.93 24.37L12.49 31.19C12.2971 34.3694 13.2953 37.5067 15.29 39.99C15.22 40.14 15.15 40.28 15.08 40.42C13.7009 43.425 12.9912 46.6937 13 50C13.0272 52.4094 13.2647 54.8119 13.71 57.18C13.8768 58.1457 14.1243 59.0957 14.45 60.02C14.6619 60.5983 15.0457 61.0979 15.5498 61.4518C16.0538 61.8057 16.6541 61.997 17.27 62H22C22.6186 61.9968 23.2212 61.8031 23.7258 61.4452C24.2303 61.0874 24.6124 60.5827 24.82 60H27.18C27.3875 60.5827 27.7696 61.0874 28.2742 61.4452C28.7788 61.8031 29.3814 61.9968 30 62H35C35.6186 61.9968 36.2212 61.8031 36.7258 61.4452C37.2303 61.0874 37.6124 60.5827 37.82 60H42.18C42.3875 60.5827 42.7696 61.0874 43.2742 61.4452C43.7788 61.8031 44.3814 61.9968 45 62H49.49C50.0694 61.9977 50.6359 61.8287 51.1218 61.513C51.6077 61.1974 51.9924 60.7485 52.23 60.22C53.4057 57.6397 54.0096 54.8356 54 52C54.0015 50.0559 53.7185 48.1221 53.16 46.26C55.0058 44.2957 56.023 41.6953 56 39C55.9991 38.1451 55.9018 37.2931 55.71 36.46C56.1083 36.1852 56.4338 35.8177 56.6586 35.3892C56.8833 34.9606 57.0005 34.4839 57 34ZM13.11 22.35C12.114 22.448 11.1126 22.2275 10.25 21.72C9.67525 21.4165 9.1763 20.9874 8.79023 20.4646C8.40416 19.9417 8.14089 19.3386 8.01998 18.7C8.63465 18.4903 9.28829 18.4201 9.93346 18.4945C10.5786 18.5689 11.1991 18.786 11.75 19.13C12.4272 19.5169 13.0003 20.0625 13.42 20.72C13.2802 21.2558 13.1767 21.8003 13.11 22.35V22.35ZM46.25 19.13C46.8025 18.7855 47.4247 18.5682 48.0716 18.4939C48.7184 18.4195 49.3737 18.4899 49.99 18.7C49.8651 19.3384 49.5991 19.9409 49.2116 20.4634C48.824 20.9858 48.3247 21.4152 47.75 21.72C46.8906 22.2264 45.8927 22.447 44.9 22.35C44.829 21.797 44.7221 21.2491 44.58 20.71C45.0001 20.0555 45.5733 19.5132 46.25 19.13V19.13ZM31.97 7.62999L32.49 5.68999C32.5579 5.43701 32.7233 5.22126 32.95 5.08999C33.0633 5.02279 33.1891 4.97927 33.3197 4.96208C33.4504 4.9449 33.5831 4.95439 33.71 4.98999C33.837 5.02299 33.9562 5.08081 34.0608 5.16012C34.1653 5.23943 34.2531 5.33866 34.3191 5.45208C34.3851 5.5655 34.428 5.69087 34.4453 5.82095C34.4627 5.95104 34.454 6.08326 34.42 6.20999L33.9 8.13999C33.6959 8.90902 33.8042 9.72758 34.2014 10.417C34.5986 11.1065 35.2523 11.6108 36.02 11.82L36.99 12.08C37.5031 12.2153 38.049 12.1419 38.5081 11.8757C38.9673 11.6096 39.3023 11.1725 39.44 10.66L41.25 3.89999C41.3215 3.64335 41.4901 3.42459 41.72 3.28999C41.8916 3.19233 42.0882 3.14766 42.2852 3.16159C42.4821 3.17552 42.6705 3.24744 42.8267 3.36829C42.9828 3.48913 43.0997 3.65349 43.1626 3.84065C43.2254 4.02781 43.2315 4.22939 43.18 4.41999L42.41 7.31999C42.2738 7.8318 42.3456 8.37671 42.6098 8.83574C42.874 9.29478 43.309 9.63064 43.82 9.76999L44.79 10.03C45.559 10.2319 46.3767 10.1211 47.0644 9.72204C47.752 9.32293 48.2538 8.66788 48.46 7.89999L48.98 5.96999C49.0104 5.83929 49.0669 5.71605 49.146 5.60762C49.2251 5.49919 49.3252 5.40778 49.4403 5.33886C49.5555 5.26993 49.6833 5.22489 49.8162 5.20641C49.9492 5.18794 50.0845 5.19641 50.2141 5.23133C50.3436 5.26624 50.4649 5.32688 50.5705 5.40964C50.6762 5.4924 50.7641 5.59557 50.829 5.71302C50.894 5.83047 50.9346 5.95979 50.9485 6.09328C50.9624 6.22676 50.9493 6.36168 50.91 6.48999L50.39 8.41999C50.0456 9.69957 49.2082 10.7905 48.0611 11.454C46.9141 12.1175 45.5509 12.2994 44.27 11.96L43.3 11.7C42.7883 11.566 42.2443 11.6387 41.7859 11.9026C41.3274 12.1665 40.9912 12.6002 40.85 13.11L38.78 20.84C38.7475 20.9673 38.6899 21.0868 38.6107 21.1917C38.5316 21.2965 38.4323 21.3845 38.3187 21.4506C38.2052 21.5167 38.0796 21.5595 37.9494 21.5766C37.8191 21.5936 37.6867 21.5846 37.56 21.55C37.303 21.4806 37.084 21.3122 36.9509 21.0817C36.8178 20.8511 36.7815 20.5772 36.85 20.32L37.89 16.46C37.9579 16.2059 37.9751 15.9409 37.9405 15.6801C37.9059 15.4194 37.8201 15.168 37.6882 14.9404C37.5563 14.7128 37.3808 14.5135 37.1718 14.3539C36.9627 14.1942 36.7243 14.0773 36.47 14.01L35.51 13.75C34.8747 13.5812 34.279 13.2885 33.7573 12.8886C33.2355 12.4887 32.7981 11.9896 32.47 11.42C32.1385 10.8534 31.9235 10.2263 31.8377 9.57543C31.7518 8.92461 31.7968 8.2632 31.97 7.62999V7.62999ZM15.21 11.63C15.0375 11.6287 14.8657 11.6522 14.7 11.7L13.73 11.96C12.4491 12.2994 11.0859 12.1175 9.93883 11.454C8.79179 10.7905 7.95438 9.69957 7.60998 8.41999L7.08998 6.48999C7.05065 6.36168 7.03754 6.22676 7.05145 6.09328C7.06535 5.95979 7.10599 5.83047 7.17093 5.71302C7.23586 5.59557 7.32378 5.4924 7.42944 5.40964C7.53509 5.32688 7.65632 5.26624 7.78591 5.23133C7.9155 5.19641 8.05079 5.18794 8.18371 5.20641C8.31664 5.22489 8.4445 5.26993 8.55965 5.33886C8.67481 5.40778 8.77491 5.49919 8.85399 5.60762C8.93308 5.71605 8.98953 5.83929 9.01998 5.96999L9.53998 7.89999C9.74619 8.66788 10.2479 9.32293 10.9356 9.72204C11.6233 10.1211 12.4409 10.2319 13.21 10.03L14.18 9.76999C14.6909 9.63064 15.126 9.29478 15.3902 8.83574C15.6544 8.37671 15.7262 7.8318 15.59 7.31999L14.82 4.41999C14.7685 4.22939 14.7745 4.02781 14.8374 3.84065C14.9003 3.65349 15.0171 3.48913 15.1733 3.36829C15.3294 3.24744 15.5178 3.17552 15.7148 3.16159C15.9117 3.14766 16.1084 3.19233 16.28 3.28999C16.5099 3.42459 16.6785 3.64335 16.75 3.89999L18.56 10.66C18.6986 11.1719 19.0338 11.6084 19.4927 11.8743C19.9515 12.1403 20.4969 12.2142 21.01 12.08L21.98 11.82C22.7476 11.6108 23.4014 11.1065 23.7986 10.417C24.1958 9.72758 24.3041 8.90902 24.1 8.13999L23.58 6.20999C23.5459 6.08326 23.5373 5.95104 23.5546 5.82095C23.5719 5.69087 23.6148 5.5655 23.6808 5.45208C23.7468 5.33866 23.8346 5.23943 23.9392 5.16012C24.0437 5.08081 24.163 5.02299 24.29 4.98999C24.4168 4.95439 24.5496 4.9449 24.6802 4.96208C24.8109 4.97927 24.9367 5.02279 25.05 5.08999C25.2767 5.22126 25.4421 5.43701 25.51 5.68999L26.03 7.62999C26.2032 8.2632 26.2482 8.92461 26.1623 9.57543C26.0764 10.2263 25.8615 10.8534 25.53 11.42C25.2019 11.9896 24.7644 12.4887 24.2427 12.8886C23.721 13.2885 23.1253 13.5812 22.49 13.75L21.53 14.01C21.1024 14.1236 20.7244 14.3755 20.4549 14.7264C20.1853 15.0773 20.0395 15.5075 20.04 15.95C20.0436 16.1221 20.0671 16.2933 20.11 16.46L21.15 20.32C21.1893 20.4483 21.2024 20.5832 21.1885 20.7167C21.1746 20.8502 21.134 20.9795 21.069 21.097C21.0041 21.2144 20.9162 21.3176 20.8105 21.4003C20.7049 21.4831 20.5836 21.5437 20.4541 21.5787C20.3245 21.6136 20.1892 21.622 20.0562 21.6036C19.9233 21.5851 19.7955 21.5401 19.6803 21.4711C19.5652 21.4022 19.4651 21.3108 19.386 21.2024C19.3069 21.0939 19.2504 20.9707 19.22 20.84L17.15 13.11C17.034 12.6845 16.7812 12.309 16.4306 12.0415C16.0799 11.774 15.651 11.6294 15.21 11.63V11.63ZM14.49 31.31L15 23.27C15.1042 21.5813 15.6117 19.9421 16.48 18.49C16.49 18.48 16.5 18.46 16.51 18.45L17.29 21.36C17.4976 22.1265 18.0002 22.7796 18.6878 23.1768C19.3754 23.5741 20.1923 23.683 20.96 23.48C21.7277 23.2718 22.3819 22.7686 22.78 22.08C22.9788 21.7389 23.1077 21.3616 23.1592 20.9702C23.2107 20.5787 23.1838 20.1809 23.08 19.8L22.04 15.94L23.01 15.68C24.5772 15.2685 25.9504 14.3201 26.89 13H31.11C32.0496 14.3201 33.4227 15.2685 34.99 15.68L35.95 15.94L34.92 19.8C34.8162 20.1809 34.7893 20.5787 34.8408 20.9702C34.8923 21.3616 35.0212 21.7389 35.22 22.08C35.6181 22.7686 36.2723 23.2718 37.04 23.48C37.4202 23.5827 37.8169 23.6093 38.2074 23.5583C38.5979 23.5072 38.9745 23.3796 39.3155 23.1826C39.6565 22.9856 39.9552 22.7232 40.1946 22.4104C40.4339 22.0976 40.609 21.7407 40.71 21.36L41.49 18.45C41.5 18.46 41.51 18.48 41.52 18.49C42.378 19.9212 42.8852 21.5352 43 23.2V23.31L43.51 31.32C43.5607 31.9969 43.5406 32.6773 43.45 33.35C43.3958 33.813 43.3055 34.2711 43.18 34.72C42.7515 36.3233 41.9683 37.8099 40.8882 39.0699C39.8082 40.33 38.4589 41.3313 36.94 42C36.97 41.67 37 41.33 37 41C37 35.49 33.41 31 29 31C24.59 31 21 35.49 21 41C21 41.33 21.03 41.67 21.06 42C19.8207 41.4573 18.6919 40.6913 17.73 39.74C17.56 39.57 17.38 39.39 17.22 39.2C16.2647 38.1315 15.5314 36.8836 15.0627 35.5291C14.594 34.1746 14.3993 32.7404 14.49 31.31V31.31ZM35 41C34.9947 41.5697 34.9446 42.1381 34.85 42.7C34.0129 42.8896 33.1582 42.9902 32.3 43H25.7C24.8418 42.9902 23.987 42.8896 23.15 42.7C23.0554 42.1381 23.0053 41.5697 23 41C23 36.59 25.69 33 29 33C32.31 33 35 36.59 35 41ZM23 59C23 59.2652 22.8946 59.5196 22.7071 59.7071C22.5196 59.8946 22.2652 60 22 60H17.27C17.0636 59.9976 16.863 59.9321 16.695 59.8123C16.5269 59.6926 16.3996 59.5243 16.33 59.33C16.171 58.8948 16.0374 58.4507 15.93 58H23V59ZM36 59C36 59.2652 35.8946 59.5196 35.7071 59.7071C35.5196 59.8946 35.2652 60 35 60H30C29.7348 60 29.4804 59.8946 29.2929 59.7071C29.1053 59.5196 29 59.2652 29 59V58H36V59ZM50.41 59.4C50.3286 59.5764 50.1991 59.7263 50.0363 59.8324C49.8736 59.9385 49.6842 59.9966 49.49 60H45C44.7348 60 44.4804 59.8946 44.2929 59.7071C44.1053 59.5196 44 59.2652 44 59V58H50.96C50.79 58.47 50.62 58.94 50.41 59.4ZM51.54 56H44V52H42V58H38V52H36V56H29V52H27V58H25V52H23V56H15.53C15.2052 54.0158 15.0281 52.0103 15 50C14.9892 47.0934 15.5924 44.2174 16.77 41.56C18.3174 42.9601 20.1697 43.9804 22.18 44.54C23.3289 44.8428 24.5118 44.9973 25.7 45H32.3C33.4881 44.9973 34.6711 44.8428 35.82 44.54C37.6891 44.031 39.4233 43.1167 40.8993 41.862C42.3752 40.6072 43.5568 39.0429 44.36 37.28C47.2852 39.3302 49.5315 42.2075 50.8107 45.5428C52.09 48.8781 52.3439 52.5194 51.54 56ZM52.38 44.09C52.0649 43.3648 51.7111 42.6571 51.32 41.97C52.6459 40.7852 53.5366 39.1903 53.85 37.44C53.9454 37.9546 53.9956 38.4766 54 39C54.0139 40.8256 53.4466 42.6083 52.38 44.09V44.09ZM54 35C53.7348 35 53.4804 34.8946 53.2929 34.7071C53.1053 34.5196 53 34.2652 53 34C53.0814 32.9578 53.4254 31.9533 54 31.08C54.5746 31.9533 54.9186 32.9578 55 34C55 34.2652 54.8946 34.5196 54.7071 34.7071C54.5196 34.8946 54.2652 35 54 35Z" fill="#3D9AE2"/>
<path d="M44 48H42V50H44V48Z" fill="#3D9AE2"/>
</svg>
