<?xml version="1.0" encoding="UTF-8" standalone="no"?> <svg xmlns="http://www.w3.org/2000/svg" viewBox="0 0 64 64"><g id="Layer_96" data-name="Layer 96"><path d="M12,5.84A5.16,5.16,0,1,0,17.16,11,5.17,5.17,0,0,0,12,5.84Zm0,7.82A2.66,2.66,0,1,1,14.66,11,2.66,2.66,0,0,1,12,13.66Z"/><path d="M24.91,12.34h31a1.25,1.25,0,0,0,0-2.5h-31a1.25,1.25,0,0,0,0,2.5Z"/><path d="M12,19.84A5.16,5.16,0,1,0,17.16,25,5.17,5.17,0,0,0,12,19.84Zm0,7.82A2.66,2.66,0,1,1,14.66,25,2.66,2.66,0,0,1,12,27.66Z"/><path d="M55.91,23.84h-31a1.25,1.25,0,0,0,0,2.5h31a1.25,1.25,0,0,0,0-2.5Z"/><path d="M12,33.84A5.16,5.16,0,1,0,17.16,39,5.17,5.17,0,0,0,12,33.84Zm0,7.82A2.66,2.66,0,1,1,14.66,39,2.66,2.66,0,0,1,12,41.66Z"/><path d="M55.91,37.84h-31a1.25,1.25,0,1,0,0,2.5h31a1.25,1.25,0,0,0,0-2.5Z"/><path d="M12,47.84A5.16,5.16,0,1,0,17.16,53,5.17,5.17,0,0,0,12,47.84Zm0,7.82A2.66,2.66,0,1,1,14.66,53,2.66,2.66,0,0,1,12,55.66Z"/><path d="M55.91,51.84h-31a1.25,1.25,0,1,0,0,2.5h31a1.25,1.25,0,0,0,0-2.5Z"/></g></svg>